<svg xmlns="http://www.w3.org/2000/svg" width="250" height="100" viewBox="0 0 250 110">
  <g fill="#FFFFFF" fill-rule="evenodd">
    <g transform="translate(61.047)">
      <path d="M58.3318314 59.7130472L27.5949128 102.638874C26.0207849 104.837024 23.3739826 105.990724 20.69375 105.657142 17.6428779 105.276945 13.4422965 104.131984 9.10944767 101.016118 4.77805233 97.900252 2.35072674 94.2803701 1.01497093 91.5053701-.157994186 89.0668661.0832848837 86.1840709 1.65886628 83.9844646L32.3957849 41.0586378C33.8594477 39.0134409 35.7780523 37.3382441 38.0018895 36.1656063L44.0484012 32.9754488C45.262064 32.3345039 46.3478198 31.4808819 47.25625 30.451 50.190843 27.1224567 58.0702035 18.3939528 72.0425872 4.28879528L72.2853198 3.17005512C72.3420058 2.91222047 72.5367733 2.70828346 72.7925872 2.64418898L73.562936 2.45044882C73.8972384 2.36596063 74.1225291 2.04985827 74.0949128 1.70462205L74.0164244.753401575C73.9844477.360094488 74.2824128.0134015748 74.6748547.0017480315 75.6021802-.0244724409 77.4088663.243559055 79.9568314 2.07607874 82.5047965 3.90714173 83.3361919 5.5371811 83.6079942 6.42576378 83.7228198 6.80304724 83.4917151 7.19781102 83.1079942 7.29249606L82.1835756 7.52265354C81.8478198 7.60568504 81.6210756 7.92033071 81.6486919 8.26702362L81.7126453 9.05946457C81.7344477 9.32166929 81.6036337 9.57513386 81.378343 9.70914961L80.3986919 10.2991102C71.5382267 28.0795039 65.8085756 38.3550157 63.6021802 42.2079685 62.9190407 43.3995433 62.4597384 44.7032835 62.2431686 46.0609213L61.1617733 52.8243465C60.7649709 55.3094646 59.7969477 57.6678504 58.3318314 59.7130472zM125.565552 83.9838819L94.8286337 41.0580551C93.3649709 39.0128583 91.4449128 37.3391181 89.2239826 36.1664803L83.1760174 32.9748661C81.9623547 32.3339213 80.8765988 31.4817559 79.9681686 30.4504173 79.2486919 29.6346693 78.2094477 28.4722283 76.8722384 26.9995118 76.6614826 26.7693543 76.2690407 26.8188819 76.1236919 27.0971102 71.4638081 36.035378 68.3271802 41.6319921 66.9114826 44.1054567 66.4565407 44.8978976 66.1527616 45.7602598 66.0074128 46.6648661 65.6992733 48.5935276 65.6992733 50.560063 66.0074128 52.4872677L66.0626453 52.8237638C66.4594477 55.3088819 67.4274709 57.6672677 68.8925872 59.7124646L99.6295058 102.638291C101.189099 104.817504 103.79811 105.987228 106.456541 105.666756 109.513227 105.295299 113.747238 104.157622 118.114971 101.015535 122.446366 97.901126 124.872238 94.2812441 126.207994 91.5062441 127.382413 89.0662835 127.141134 86.1849449 125.565552 83.9838819M44.1162791 7.29264173L45.0406977 7.52279921C45.3764535 7.60583071 45.6017442 7.92193307 45.5755814 8.26716929L45.5116279 9.05961024C45.4898256 9.32327165 45.619186 9.57382283 45.8459302 9.70929528L46.8255814 10.2992559C48.4651163 13.5884685 49.9883721 16.6023661 51.4098837 19.3802795 51.5450581 19.6468543 51.8895349 19.6992953 52.0930233 19.4807913 54.4011628 17.0073268 57.1787791 14.0720906 60.4563953 10.6750827 60.7267442 10.3953976 60.7412791 9.94819291 60.4709302 9.66996457 58.8110465 7.96854724 57.065407 6.1899252 55.181686 4.28894094L54.9389535 3.16874409C54.8837209 2.91236614 54.6860465 2.70842913 54.431686 2.64433465L53.6613372 2.45059449C53.3270349 2.3661063 53.1017442 2.05000394 53.1293605 1.70476772L53.2078488.753547244C53.2398256.36169685 52.9476744.0135472441 52.556686.00189370079 51.6322674-.0257834646 49.8226744.237877953 47.2674419 2.07476772 44.7194767 3.9072874 43.8880814 5.53732677 43.6162791 6.42590945 43.5014535 6.80319291 43.7325581 7.19795669 44.1162791 7.29264173"/>
    </g>
  </g>
</svg>
